<svg id="visual" viewBox="0 0 960 540" width="960" height="540" xmlns="http://www.w3.org/2000/svg" xmlns:xlink="http://www.w3.org/1999/xlink" version="1.1">
  <path d="M0 110L120 140L240 130L360 150L480 180L600 160L720 120L840 90L960 110L960 0L840 0L720 0L600 0L480 0L360 0L240 0L120 0L0 0Z" fill="#091629"></path>
  <path d="M0 190L120 210L240 220L360 200L480 190L600 230L720 210L840 180L960 190L960 110L840 90L720 120L600 160L480 180L360 150L240 130L120 140L0 110Z" fill="#0a1c2f"></path>
  <path d="M0 270L120 300L240 320L360 310L480 300L600 340L720 310L840 280L960 270L960 190L840 180L720 210L600 230L480 190L360 200L240 220L120 210L0 190Z" fill="#0b2135"></path>
  <path d="M0 360L120 380L240 400L360 420L480 430L600 400L720 430L840 390L960 380L960 270L840 280L720 310L600 340L480 300L360 310L240 320L120 300L0 270Z" fill="#0c263b"></path>
  <path d="M0 540L120 540L240 540L360 540L480 540L600 540L720 540L840 540L960 540L960 380L840 390L720 430L600 400L480 430L360 420L240 400L120 380L0 360Z" fill="#0d2b41"></path>
</svg>
